<?xml version="1.0" encoding="UTF-8"?>
<svg viewBox="0 0 512 512" version="1.1" xmlns="http://www.w3.org/2000/svg" xmlns:xlink="http://www.w3.org/1999/xlink">
    <title>raclette</title>
    <g id="raclette" stroke="none" stroke-width="1" fill="none" fill-rule="evenodd" stroke-linejoin="round">
        <g id="Group" transform="translate(55.96, 76)" stroke="#4B3905" stroke-width="13">
            <path d="M29.0835791,289.573191 L348.269122,0 C433.087767,109.637834 434.992864,207.910806 353.984415,294.818917 C272.975966,381.727028 164.675687,379.978452 29.0835791,289.573191 Z" id="Path-2" fill="#FE9610"></path>
            <path d="M284.222427,7.00416229 C168.491502,109.034028 110.626039,160.048961 110.626039,160.048961 C110.626039,160.048961 87.4222447,167.481344 87.4222447,176.657586 C66.949306,181.651688 56.7128366,188.70793 56.7128366,197.826311 C39.4366008,202.655638 30.7984828,210.11493 30.7984828,220.204187 L30.7984828,223.012166 C9.39528155,228.651047 -0.852410207,238.944584 0.0554075864,253.892775 C4.69358766,274.62741 17.2177483,278.5 19.783611,283.58644 C22.3494737,288.67288 11.6390385,351.268053 49.9170969,347.611233 C88.1951554,343.954413 57.2436306,298.942935 55.36472,291.996051 C53.4858094,285.049168 50.503764,276.894567 56.7128366,270.835205 C62.9219091,264.775844 68.8466022,271.300814 73.1438133,265.640444 C77.4410245,259.980073 72.1860918,256.75806 80.4015802,247.539722 C85.8785725,241.394163 108.657354,221.203784 148.737925,186.968585 L348.269122,0 L284.222427,7.00416229 Z" id="Path-8" fill="#FFE18F" stroke-linecap="round"></path>
        </g>
    </g>
</svg>